name Walk5.mot
datacolumns 19
datarows 10
range 1.12600000 1.13500000
endheader

                time	   L_ground_force_vx	   L_ground_force_vy	   L_ground_force_vz	   L_ground_force_px	   L_ground_force_py	   L_ground_force_pz	   R_ground_force_vx	   R_ground_force_vy	   R_ground_force_vz	   R_ground_force_px	   R_ground_force_py	   R_ground_force_pz	   L_ground_torque_x	   L_ground_torque_y	   L_ground_torque_z	   R_ground_torque_x	   R_ground_torque_y	   R_ground_torque_z	
          1.12600000	         -3.30996138	         59.16924752	         -4.50951142	          0.00142098	          0.00000000	          0.00013482	         -0.00000000	          0.00000000	          0.00000000	         -0.00000000	          0.00000000	         -0.00000000	          0.00000000	          0.09479846	          0.00000000	          0.00000000	         -0.00000000	          0.00000000	
          1.12700000	         -3.78167999	         66.21600894	         -5.01910983	         -0.01771633	          0.00000000	         -0.00206354	         -0.00000000	          0.00000000	          0.00000000	         -0.00000000	          0.00000000	         -0.00000000	          0.00000000	          0.10739062	          0.00000000	          0.00000000	         -0.00000000	          0.00000000	
          1.12800000	         -4.29502515	         73.40361201	         -5.53709646	         -0.03677857	          0.00000000	         -0.00425497	         -0.00000000	          0.00000000	          0.00000000	         -0.00000000	          0.00000000	         -0.00000000	          0.00000000	          0.12060158	          0.00000000	          0.00000000	         -0.00000000	          0.00000000	
          1.12900000	         -4.85152499	         80.71963605	         -6.06240184	         -0.05570091	          0.00000000	         -0.00643194	         -0.00000000	          0.00000000	          0.00000000	         -0.00000000	          0.00000000	         -0.00000000	          0.00000000	          0.13443600	          0.00000000	          0.00000000	         -0.00000000	          0.00000000	
          1.13000000	         -5.45262883	         88.15065465	         -6.59388781	         -0.07442265	          0.00000000	         -0.00858749	         -0.00000000	          0.00000000	          0.00000000	         -0.00000000	          0.00000000	         -0.00000000	          0.00000000	          0.14889680	          0.00000000	          0.00000000	         -0.00000000	          0.00000000	
          1.13100000	         -6.09968940	         95.68225769	         -7.13035283	         -0.09288861	          0.00000000	         -0.01071538	         -0.00000000	          0.00000000	          0.00000000	         -0.00000000	          0.00000000	         -0.00000000	          0.00000000	          0.16398496	          0.00000000	          0.00000000	         -0.00000000	          0.00000000	
          1.13200000	         -6.79394364	        103.29911350	         -7.67053715	         -0.11104929	          0.00000000	         -0.01281009	         -0.00000000	          0.00000000	          0.00000000	         -0.00000000	          0.00000000	         -0.00000000	          0.00000000	          0.17969942	          0.00000000	          0.00000000	         -0.00000000	          0.00000000	
          1.13300000	         -7.53649175	        110.98508498	         -8.21312780	         -0.12886055	          0.00000000	         -0.01486672	         -0.00000000	          0.00000000	          0.00000000	         -0.00000000	          0.00000000	         -0.00000000	          0.00000000	          0.19603686	          0.00000000	          0.00000000	         -0.00000000	          0.00000000	
          1.13400000	         -8.32827361	        118.72341220	         -8.75676377	         -0.14628332	          0.00000000	         -0.01688096	         -0.00000000	         -0.00000000	          0.00000000	         -0.00000000	          0.00000000	         -0.00000000	          0.00000000	          0.21299159	          0.00000000	          0.00000000	         -0.00000000	          0.00000000	
          1.13500000	         -9.17004260	        126.49696493	         -9.30004154	         -0.16328334	          0.00000000	         -0.01884903	         -0.00000000	         -0.00000000	          0.00000000	         -0.00000000	          0.00000000	         -0.00000000	          0.00000000	          0.23055545	          0.00000000	          0.00000000	         -0.00000000	          0.00000000	
